<svg id="레이어_1" data-name="레이어 1" xmlns="http://www.w3.org/2000/svg" viewBox="0 0 102.34 102.34"><defs><style>.cls-1{fill:#ae00ff;}.cls-2{fill:#fff;}</style></defs><title>oku_favicon</title><rect class="cls-1" width="102.34" height="102.34" rx="20.59"/><path class="cls-2" d="M10.27,61a10.94,10.94,0,0,0,6.24,1.59H31A17.65,17.65,0,0,0,38.37,61a19,19,0,0,0,6.2-4.48,19.56,19.56,0,0,0,4.06-6.7,12.4,12.4,0,0,0,.8-6.65A6.71,6.71,0,0,0,46.5,38.7a11.05,11.05,0,0,0-6.25-1.59H25.8a17.85,17.85,0,0,0-7.41,1.59,19,19,0,0,0-6.2,4.49,19.58,19.58,0,0,0-4,6.65,12.64,12.64,0,0,0-.82,6.7A6.74,6.74,0,0,0,10.27,61ZM19,49.89a6.1,6.1,0,0,1,2.2-3,5.63,5.63,0,0,1,3.37-1.09H35.11a2.88,2.88,0,0,1,2.58,1.09,3.23,3.23,0,0,1,.05,3,6.07,6.07,0,0,1-2.2,3,5.67,5.67,0,0,1-3.38,1.1H21.64a2.86,2.86,0,0,1-2.58-1.1A3.19,3.19,0,0,1,19,49.89Z"/><polygon class="cls-2" points="55.62 43.94 52.16 52.61 80.98 52.61 79.63 56.08 50.77 56.08 47.32 64.75 76.25 64.75 74.91 68.22 85.71 68.22 95.17 43.94 55.62 43.94"/></svg>