<svg id="레이어_1" data-name="레이어 1" xmlns="http://www.w3.org/2000/svg" viewBox="0 0 180 180"><defs><style>.cls-1{fill:#f2f2f2;}.cls-2{fill:#818181;}.cls-3{fill:none;stroke:#818181;stroke-miterlimit:10;stroke-width:2px;}</style></defs><rect class="cls-1" width="180" height="180" rx="16"/><path class="cls-2" d="M90,86.6a5.35,5.35,0,1,1-5.34,5.34A5.35,5.35,0,0,1,90,86.6m0-2a7.35,7.35,0,1,0,7.34,7.34A7.34,7.34,0,0,0,90,84.6Z"/><path class="cls-2" d="M106,79.45V97.13l-7.77,7.22H74V79.45h32m2-2H72v28.9H99L108,98V77.45Z"/><polyline class="cls-3" points="95.06 78.38 95.06 73.65 103.46 73.65 103.46 78.38"/><path class="cls-2" d="M90,91.88a.07.07,0,0,1,.07.06.07.07,0,0,1-.14,0,.07.07,0,0,1,.07-.06m0-2a2.07,2.07,0,1,0,2.07,2.06A2.07,2.07,0,0,0,90,89.88Z"/></svg>