<?xml version="1.0" encoding="utf-8"?>
<!-- Generator: Adobe Illustrator 24.0.0, SVG Export Plug-In . SVG Version: 6.00 Build 0)  -->
<svg version="1.1" id="레이어_1" xmlns="http://www.w3.org/2000/svg" xmlns:xlink="http://www.w3.org/1999/xlink" x="0px"
	 y="0px" viewBox="0 0 25 25" style="enable-background:new 0 0 25 25;" xml:space="preserve">
<style type="text/css">
	.st0{fill:none;stroke:#EAEAEA;stroke-width:2;stroke-miterlimit:10;}
	.st1{fill:#EAEAEA;}
</style>
<circle class="st0" cx="12.5" cy="14" r="4.9"/>
<path class="st1" d="M22.6,6.3v10.9l-4.8,4.5H2.4V6.3H22.6 M24.6,4.3H0.4v19.4h18.1l6-5.6L24.6,4.3L24.6,4.3z"/>
<polyline class="st0" points="15.9,4.9 15.9,1.8 21.5,1.8 21.5,4.9 "/>
<path class="st1" d="M12.5,12.6c-0.8,0-1.4,0.6-1.4,1.4c0,0.8,0.6,1.4,1.4,1.4c0.8,0,1.4-0.6,1.4-1.4c0,0,0,0,0,0
	C13.9,13.2,13.3,12.6,12.5,12.6C12.5,12.6,12.5,12.6,12.5,12.6L12.5,12.6z"/>
</svg>
