<svg id="레이어_1" data-name="레이어 1" xmlns="http://www.w3.org/2000/svg" viewBox="0 0 25 25"><defs><style>.cls-1{fill:none;stroke:#040000;stroke-miterlimit:10;}.cls-2{fill:#ae00ff;}.cls-3{fill:#fff;}</style></defs><rect class="cls-1" x="-625.74" y="-31.6" width="690.5" height="202.95"/><circle class="cls-2" cx="12.5" cy="12.5" r="11.5"/><path class="cls-2" d="M12.5,2a10.5,10.5,0,0,1,0,21A10.52,10.52,0,0,1,2,12.5,10.51,10.51,0,0,1,12.5,2m0-2A12.5,12.5,0,1,0,25,12.5,12.5,12.5,0,0,0,12.5,0Z"/><polygon class="cls-2" points="22.4 18.41 24.24 12.5 25 12.5 25 21.5 22.4 18.41"/><path class="cls-3" d="M12.06,18.16a5.32,5.32,0,0,1-3.53-1.61L9.78,15a4.44,4.44,0,0,0,2.28,1.22V13.16l-.83-.32a3.33,3.33,0,0,1-2.31-3,3.25,3.25,0,0,1,3.14-3.12V5.09h1.47V6.73A4.76,4.76,0,0,1,16.3,8.05L15.11,9.42a3.47,3.47,0,0,0-1.58-.84v3.07l.89.34c1.31.58,2.32,1.25,2.32,2.83,0,1.84-1.3,2.95-3.21,3.28v1.69H12.06Zm0-7.14V8.6a1.34,1.34,0,0,0-1.13,1.19A1.53,1.53,0,0,0,12.06,11Zm1.47,2.76v2.4c.65-.17,1.2-.43,1.2-1.2S14.29,14.11,13.53,13.78Z"/></svg>