<?xml version="1.0" encoding="utf-8"?>
<!-- Generator: Adobe Illustrator 24.0.0, SVG Export Plug-In . SVG Version: 6.00 Build 0)  -->
<svg version="1.1" id="레이어_1" xmlns="http://www.w3.org/2000/svg" xmlns:xlink="http://www.w3.org/1999/xlink" x="0px"
	 y="0px" viewBox="0 0 16.1 13.9" style="enable-background:new 0 0 16.1 13.9;" xml:space="preserve">
<style type="text/css">
	.st0{fill:#FFFFFF;stroke:#FFFFFF;stroke-width:0.75;stroke-miterlimit:10;}
</style>
<path class="st0" d="M15.5,3.1c-0.5-1.6-1.9-2.6-3.5-2.7H12c-1.6,0-3.1,0.9-3.9,2.3C7.3,1.3,5.8,0.4,4.2,0.4c-1.4,0-2.7,0.8-3.4,2.1
	c-0.7,1.4-0.6,3,0.3,4.3c0.5,0.7,1.1,1.3,1.7,1.9l0.7,0.7l2,2l0.9-0.9l-2-2C4.2,8.2,3.9,8,3.7,7.8C3.1,7.2,2.6,6.7,2.1,6.1
	C1.6,5.2,1.5,4,2,3.1c0.4-0.9,1.3-1.4,2.2-1.4C6,1.7,7.5,3.3,7.4,5.1h1.3c0-1.9,1.4-3.4,3.3-3.4c0,0,0,0,0,0l0,0
	c1.1,0,2,0.8,2.3,1.8c0.3,1.3-0.1,2.6-1.1,3.5c-1.3,1.5-2.7,2.9-4,4.3C8.5,12,7.8,12.7,7,13.5h1.8l1.4-1.4c1.4-1.4,2.8-2.8,4.1-4.3
	C15.5,6.6,16,4.8,15.5,3.1z"/>
</svg>
