<svg id="레이어_1" data-name="레이어 1" xmlns="http://www.w3.org/2000/svg" viewBox="0 0 25 25"><defs><style>.cls-1{fill:#5d5d5d;}.cls-2{fill:#fff;stroke:#fff;stroke-width:0.75px;}.cls-2,.cls-3{stroke-miterlimit:10;}.cls-3{fill:none;stroke:#040000;}</style></defs><circle class="cls-1" cx="12.5" cy="12.5" r="12.32"/><path class="cls-2" d="M20,9.42a3.8,3.8,0,0,0-3.49-2.7h-.07a4.5,4.5,0,0,0-3.9,2.33,4.48,4.48,0,0,0-3.9-2.33A3.72,3.72,0,0,0,5.29,8.81a4.23,4.23,0,0,0,.29,4.33A15.26,15.26,0,0,0,7.28,15l.7.7,1.95,2,.91-.87-2-2c-.23-.25-.47-.49-.72-.73A14.69,14.69,0,0,1,6.6,12.41a3,3,0,0,1-.19-3A2.46,2.46,0,0,1,8.63,8a3.36,3.36,0,0,1,3.26,3.45h1.26A3.38,3.38,0,0,1,16.47,8h0a2.53,2.53,0,0,1,2.32,1.84,3.61,3.61,0,0,1-1.08,3.45c-1.29,1.46-2.69,2.88-4,4.25-.75.77-1.5,1.53-2.24,2.31h1.75l1.38-1.43c1.36-1.39,2.77-2.82,4.09-4.29A4.74,4.74,0,0,0,20,9.42Z"/><rect class="cls-3" x="-371.7" y="-60.53" width="690.5" height="202.95"/></svg>